<svg xmlns="http://www.w3.org/2000/svg" version="1.1" xmlns:xlink="http://www.w3.org/1999/xlink" width="512" height="512" x="0" y="0" viewBox="0 0 625.335 625.335" xml:space="preserve"><g><path d="M24.047 129.922a145.251 145.251 0 0 1 2.437-42.129c3.825-17.25 11.336-31.57 22.32-42.55 15.391-15.403 37.036-23.845 64.25-25.095a187.226 187.226 0 0 1 39.372 2.684l3.46-19.676A207.042 207.042 0 0 0 112.22.191c-32.43 1.497-58.52 11.899-77.535 30.93-13.735 13.73-23.063 31.363-27.715 52.43-.008.039-.02.082-.028.12a164.894 164.894 0 0 0-2.789 48.005zM67.852 260.434c-6.016-10.977-11.532-22.008-16.399-32.797l-18.207 8.215c5.078 11.253 10.828 22.757 17.094 34.183zM9.96 168.516a326.526 326.526 0 0 0 9.118 31.664l18.902-6.457a305.954 305.954 0 0 1-8.562-29.715zM145.848 370.43c-.871-.996-1.739-1.985-2.602-2.98l-15.074 13.097c.883 1.02 1.77 2.039 2.668 3.058a752.51 752.51 0 0 0 15.687 17.305 778.363 778.363 0 0 0 7.258 7.645l14.395-13.848a736.68 736.68 0 0 1-22.332-24.277zM104.04 351.2l15.765-12.259a630.086 630.086 0 0 1-4.305-5.609 644.973 644.973 0 0 1-17.492-24.133l-16.445 11.336a664.394 664.394 0 0 0 18.035 24.88 543.2 543.2 0 0 0 4.441 5.784zM170.773 425.656a727.152 727.152 0 0 0 59.48 52.043 609.54 609.54 0 0 0 89.786 58.66 444.635 444.635 0 0 0 57.227 25.465l-18.243 5.223 5.493 19.203 51.07-14.613c5.3-1.516 8.367-7.047 6.851-12.352L409.13 512.77l-19.207 5.492 8.46 29.55a404.374 404.374 0 0 1-68.976-29.093 589.287 589.287 0 0 1-86.816-56.727 708.105 708.105 0 0 1-57.871-50.625zM579.95 428.922c-4.079-25.477-12.505-52.883-25.048-81.457l-18.289 8.027c11.86 27.02 19.801 52.793 23.61 76.582 7.148 44.664-.703 79.895-22.7 101.899-10.894 10.894-25.062 18.363-42.113 22.207-13.785 3.101-29.414 3.84-46.465 2.207-4.203-.403-8.539-.961-12.89-1.649l-3.118 19.727c4.743.75 9.489 1.355 14.102 1.8 6.496.622 12.824.934 18.984.934a154.137 154.137 0 0 0 33.778-3.539c20.797-4.691 38.238-13.965 51.844-27.57 26.714-26.715 36.5-67.918 28.304-119.168zM531.531 301.215l-17.351 9.89a506.677 506.677 0 0 1 13.48 25.262l17.89-8.879a513.092 513.092 0 0 0-14.019-26.273zM485.172 231.79l-15.867 12.132a681.447 681.447 0 0 1 21.605 29.91l16.508-11.246a703.68 703.68 0 0 0-22.246-30.797zM435.797 174.066l-14.442 13.79a678.567 678.567 0 0 1 24.739 27.378l15.18-12.98a701.777 701.777 0 0 0-25.477-28.188zM188.305 70.273l19.53-4.175-6.448-30.168a400.696 400.696 0 0 1 53.355 23.422 583.94 583.94 0 0 1 85.774 55.375c12.691 9.793 25.476 20.421 37.996 31.582a730.55 730.55 0 0 1 29.785 28.152l14.121-14.121a741.742 741.742 0 0 0-9.258-9.098 749.793 749.793 0 0 0-21.344-19.84c-12.875-11.472-26.027-22.406-39.062-32.464-12.695-9.872-25.84-19.223-39.324-28.075a499.27 499.27 0 0 1 22.89-12.156l-8.886-17.887c-8.961 4.446-18.11 9.344-27.188 14.547l6.344 11.07a613.672 613.672 0 0 0-42.512-24.746 422.894 422.894 0 0 0-39.7-18.398l17.599-3.758L237.812 0l-51.94 11.102a9.984 9.984 0 0 0-7.68 11.851zM3.105 430.484a206.78 206.78 0 0 0-2.96 43.668c1.488 32.426 11.89 58.512 30.925 77.54 13.73 13.734 31.375 23.054 52.43 27.703.04.003.082.015.129.023a164.746 164.746 0 0 0 33.48 3.437c4.84 0 9.68-.21 14.516-.636l-1.754-19.903a144.701 144.701 0 0 1-42.129-2.441c-17.254-3.813-31.57-11.316-42.55-22.305-15.399-15.398-23.844-37.047-25.094-64.254a186.797 186.797 0 0 1 2.683-39.378zM235.8 553.121c11.262-5.074 22.762-10.832 34.18-17.09l-9.593-17.511c-10.973 6.011-22.008 11.53-32.801 16.394zM168.465 576.41a325.892 325.892 0 0 0 31.664-9.117l-6.457-18.906a306.442 306.442 0 0 1-29.715 8.566zM367.402 443.117l13.09 15.086a468.087 468.087 0 0 0 3.067-2.672 783.282 783.282 0 0 0 17.304-15.687 776.833 776.833 0 0 0 7.649-7.262l-13.852-14.39a627.4 627.4 0 0 1-7.445 7.062 723.704 723.704 0 0 1-16.84 15.266c-.988.87-1.977 1.738-2.973 2.597zm0 0" fill="#986dff" opacity="1" data-original="#000000"></path><path d="m309.152 488.352 11.336 16.449a658.748 658.748 0 0 0 24.883-18.031 652.27 652.27 0 0 0 5.781-4.442l-12.257-15.773a637.215 637.215 0 0 1-29.742 21.797zM432.027 26.14c44.66-7.14 79.895.708 101.899 22.708 10.886 10.886 18.36 25.058 22.207 42.109 3.097 13.79 3.844 29.422 2.203 46.469-.398 4.195-.95 8.527-1.645 12.887l19.727 3.12c.75-4.757 1.355-9.503 1.8-14.101 1.837-19.152.962-36.902-2.605-52.762-4.687-20.797-13.96-38.246-27.566-51.851C521.328 8.004 480.113-1.785 428.875 6.418c-25.465 4.074-52.879 12.504-81.457 25.043l8.027 18.293c27.02-11.86 52.785-19.805 76.582-23.613zM215.18 140.273l-12.985-15.175a710.383 710.383 0 0 0-28.183 25.465l13.793 14.449a680.554 680.554 0 0 1 27.375-24.739zM273.79 95.46l-11.255-16.507a707.747 707.747 0 0 0-30.793 22.246l12.133 15.867a673.209 673.209 0 0 1 29.914-21.605zM571.59 170.79c-1.516-5.306-7.047-8.372-12.348-6.856l-46.52 13.312 5.493 19.203 29.555-8.457a404.853 404.853 0 0 1-29.102 68.977 589.287 589.287 0 0 1-56.727 86.816 708.098 708.098 0 0 1-50.629 57.867l14.293 13.95a727.898 727.898 0 0 0 52.043-59.48 609.334 609.334 0 0 0 58.66-89.786 445.173 445.173 0 0 0 25.465-57.227l5.223 18.243 19.203-5.493zM20.816 408.402c.7 0 1.403-.074 2.094-.226l47.313-10.11-4.176-19.535-30.164 6.453a399.97 399.97 0 0 1 23.422-53.355 583.427 583.427 0 0 1 55.37-85.777c9.79-12.688 20.419-25.473 31.583-37.997a720.01 720.01 0 0 1 19.3-20.773 736.029 736.029 0 0 1 8.856-9.012l-14.121-14.12a744.663 744.663 0 0 0-28.941 30.61c-11.485 12.87-22.41 26.026-32.465 39.057a603.67 603.67 0 0 0-57.242 88.676 418.587 418.587 0 0 0-18.399 39.7l-3.762-17.61-19.535 4.172 11.102 51.941a9.998 9.998 0 0 0 9.765 7.906zM206.941 213.996v158.43c0 8.453 4.743 20.355 28.79 29.054 15.57 5.633 35.925 8.739 57.542 8.739h.774c12.488 0 24.95-1.14 37.23-3.403 31.133-5.972 49.184-18.507 49.184-34.39v-158.43c0-8.457-5.285-20.351-29.336-29.059-15.574-5.632-36.203-8.738-57.848-8.738-21.652 0-41.914 3.106-57.488 8.738-24.047 8.704-28.848 20.602-28.848 29.06zM327.54 387.187a182.918 182.918 0 0 1-34.258 3.06c-19.402 0-37.25-2.684-50.695-7.544-13.152-4.762-15.672-9.535-15.672-10.277V344.55a66.03 66.03 0 0 0 8.816 3.875c15.57 5.637 35.926 8.738 57.583 8.738 21.66 0 42.324-3.101 57.894-8.738 3.414-1.235 5.535-2.535 9.281-3.883v27.879c0 1.875-8.086 9.996-32.949 14.765zm32.95-67.82c0 .75-3.005 5.52-16.153 10.281-13.45 4.868-31.656 7.543-51.059 7.543-19.398 0-37.246-2.675-50.691-7.543-13.152-4.761-15.672-9.535-15.672-10.28v-27.509a65.554 65.554 0 0 0 8.816 3.88c15.57 5.636 35.926 8.738 57.583 8.738 21.66 0 42.324-3.102 57.894-8.739 3.414-1.234 5.535-2.535 9.281-3.879zm-16.153-42.41c-13.45 4.867-31.656 7.543-51.059 7.543-19.398 0-37.246-2.676-50.691-7.543-13.152-4.758-15.672-9.531-15.672-10.273v-27.516a66.784 66.784 0 0 0 8.816 3.879c15.575 5.637 35.93 8.738 57.583 8.738s42.32-3.105 57.894-8.738c3.414-1.238 5.535-2.54 9.281-3.879v27.516c0 .742-3.004 5.515-16.152 10.273zm-102.113-73.238c13.449-4.871 31.539-7.547 50.933-7.547 19.39 0 37.485 2.676 50.934 7.547 13.144 4.761 15.914 9.531 15.914 10.277 0 .738-2.77 5.508-15.914 10.27-13.45 4.87-31.543 7.547-50.934 7.547-19.394 0-37.484-2.684-50.933-7.547-13.153-4.762-15.918-9.532-15.918-10.27 0-.746 2.77-5.516 15.922-10.277zm0 0" fill="#986dff" opacity="1" data-original="#000000"></path></g></svg>