<svg xmlns="http://www.w3.org/2000/svg" version="1.1" xmlns:xlink="http://www.w3.org/1999/xlink" width="512" height="512" x="0" y="0" viewBox="0 0 494.001 494.001" xml:space="preserve" id="SVG 13"><g><path d="M445.288 89.009H48.709C21.82 89.039.03 110.829 0 137.718v218.564c.03 26.888 21.82 48.679 48.709 48.709h396.579c26.89-.029 48.682-21.819 48.712-48.709V137.718c-.03-26.889-21.822-48.679-48.712-48.709zM332.824 247l140.458-118.303a29.266 29.266 0 0 1 1.421 9.02v218.564a29.295 29.295 0 0 1-1.42 9.02zm112.464-138.694a29.256 29.256 0 0 1 16.346 4.972L247 294.059 32.366 113.278a29.241 29.241 0 0 1 16.344-4.971zM20.719 365.305a29.278 29.278 0 0 1-1.421-9.022V137.718a29.302 29.302 0 0 1 1.421-9.021L161.175 247zm27.99 20.39a29.244 29.244 0 0 1-16.343-4.967L176.152 259.62l64.632 54.436a9.648 9.648 0 0 0 12.431 0l64.632-54.437 143.785 121.103a29.243 29.243 0 0 1-16.345 4.972H48.709z" fill="#986dff" opacity="1" data-original="#000000"></path></g></svg>